<svg width="414" height="228" viewBox="0 0 414 228" fill="none" xmlns="http://www.w3.org/2000/svg">
<path fill-rule="evenodd" clip-rule="evenodd" d="M341 45C348.476 23.3605 379.326 18.7489 414 21.116V0H0V62.8801C4.56396 64.9937 9.24292 67.3572 14 70C33.7292 80.9607 46.5386 60.9742 58.4956 42.3175C73.8115 18.4203 87.7292 -3.29529 113 45C138.43 93.5991 170.602 70.9739 200.613 49.869C223.708 33.627 245.523 18.2853 262 37C262 37 322 100 341 45Z" fill="#017FB1"/>
<path d="M147.409 217.54V211.091H149.085V222H147.409V220.153H147.295C147.04 220.707 146.642 221.179 146.102 221.567C145.563 221.95 144.881 222.142 144.057 222.142C143.375 222.142 142.769 221.993 142.239 221.695C141.708 221.392 141.292 220.937 140.989 220.331C140.686 219.72 140.534 218.951 140.534 218.023V211.091H142.21V217.909C142.21 218.705 142.433 219.339 142.878 219.812C143.328 220.286 143.901 220.523 144.597 220.523C145.013 220.523 145.437 220.416 145.868 220.203C146.304 219.99 146.668 219.663 146.962 219.223C147.26 218.783 147.409 218.222 147.409 217.54ZM159.682 213.534L158.177 213.96C158.082 213.709 157.942 213.465 157.758 213.229C157.578 212.987 157.332 212.788 157.019 212.632C156.707 212.476 156.307 212.398 155.819 212.398C155.151 212.398 154.595 212.552 154.15 212.859C153.709 213.162 153.489 213.548 153.489 214.017C153.489 214.434 153.641 214.763 153.944 215.004C154.247 215.246 154.72 215.447 155.364 215.608L156.984 216.006C157.959 216.242 158.686 216.605 159.164 217.092C159.642 217.575 159.881 218.198 159.881 218.96C159.881 219.585 159.701 220.144 159.342 220.636C158.986 221.129 158.489 221.517 157.85 221.801C157.211 222.085 156.467 222.227 155.62 222.227C154.507 222.227 153.586 221.986 152.857 221.503C152.128 221.02 151.666 220.314 151.472 219.386L153.063 218.989C153.215 219.576 153.501 220.016 153.923 220.31C154.349 220.603 154.905 220.75 155.592 220.75C156.373 220.75 156.993 220.584 157.452 220.253C157.916 219.917 158.148 219.514 158.148 219.045C158.148 218.667 158.016 218.349 157.751 218.094C157.485 217.833 157.078 217.639 156.529 217.511L154.711 217.085C153.712 216.848 152.978 216.482 152.509 215.984C152.045 215.482 151.813 214.855 151.813 214.102C151.813 213.487 151.986 212.942 152.332 212.469C152.682 211.995 153.158 211.624 153.759 211.354C154.365 211.084 155.052 210.949 155.819 210.949C156.898 210.949 157.746 211.186 158.361 211.659C158.982 212.133 159.422 212.758 159.682 213.534ZM166.778 222.227C165.727 222.227 164.82 221.995 164.058 221.531C163.301 221.062 162.716 220.409 162.304 219.571C161.897 218.728 161.693 217.748 161.693 216.631C161.693 215.513 161.897 214.528 162.304 213.676C162.716 212.819 163.289 212.152 164.023 211.673C164.761 211.19 165.623 210.949 166.608 210.949C167.176 210.949 167.737 211.044 168.291 211.233C168.845 211.422 169.349 211.73 169.804 212.156C170.258 212.578 170.621 213.136 170.89 213.832C171.16 214.528 171.295 215.385 171.295 216.403V217.114H162.886V215.665H169.591C169.591 215.049 169.468 214.5 169.221 214.017C168.98 213.534 168.634 213.153 168.185 212.874C167.739 212.594 167.214 212.455 166.608 212.455C165.94 212.455 165.363 212.62 164.875 212.952C164.392 213.278 164.02 213.705 163.76 214.23C163.499 214.756 163.369 215.319 163.369 215.92V216.886C163.369 217.71 163.511 218.409 163.795 218.982C164.084 219.55 164.484 219.983 164.996 220.281C165.507 220.575 166.101 220.722 166.778 220.722C167.219 220.722 167.616 220.66 167.971 220.537C168.331 220.409 168.641 220.22 168.902 219.969C169.162 219.713 169.363 219.396 169.506 219.017L171.125 219.472C170.954 220.021 170.668 220.504 170.265 220.92C169.863 221.332 169.366 221.654 168.774 221.886C168.182 222.114 167.517 222.227 166.778 222.227ZM183.814 211.091V212.511H178.161V211.091H183.814ZM179.809 208.477H181.485V218.875C181.485 219.348 181.553 219.704 181.691 219.94C181.833 220.172 182.013 220.329 182.231 220.409C182.453 220.485 182.687 220.523 182.934 220.523C183.118 220.523 183.27 220.513 183.388 220.494C183.507 220.471 183.601 220.452 183.672 220.438L184.013 221.943C183.9 221.986 183.741 222.028 183.537 222.071C183.334 222.118 183.076 222.142 182.763 222.142C182.29 222.142 181.826 222.04 181.371 221.837C180.921 221.633 180.547 221.323 180.249 220.906C179.955 220.49 179.809 219.964 179.809 219.33V208.477ZM188.046 215.438V222H186.37V207.455H188.046V212.795H188.188C188.444 212.232 188.827 211.785 189.339 211.453C189.855 211.117 190.541 210.949 191.398 210.949C192.142 210.949 192.793 211.098 193.352 211.396C193.91 211.69 194.344 212.142 194.651 212.753C194.964 213.359 195.12 214.131 195.12 215.068V222H193.444V215.182C193.444 214.315 193.219 213.645 192.769 213.172C192.324 212.694 191.706 212.455 190.915 212.455C190.366 212.455 189.874 212.571 189.438 212.803C189.007 213.035 188.666 213.373 188.415 213.818C188.169 214.263 188.046 214.803 188.046 215.438ZM197.986 222V211.091H199.663V222H197.986ZM198.839 209.273C198.512 209.273 198.23 209.161 197.994 208.939C197.762 208.716 197.646 208.449 197.646 208.136C197.646 207.824 197.762 207.556 197.994 207.334C198.23 207.111 198.512 207 198.839 207C199.165 207 199.445 207.111 199.677 207.334C199.914 207.556 200.032 207.824 200.032 208.136C200.032 208.449 199.914 208.716 199.677 208.939C199.445 209.161 199.165 209.273 198.839 209.273ZM210.26 213.534L208.754 213.96C208.659 213.709 208.52 213.465 208.335 213.229C208.155 212.987 207.909 212.788 207.596 212.632C207.284 212.476 206.884 212.398 206.396 212.398C205.729 212.398 205.172 212.552 204.727 212.859C204.287 213.162 204.067 213.548 204.067 214.017C204.067 214.434 204.218 214.763 204.521 215.004C204.824 215.246 205.298 215.447 205.942 215.608L207.561 216.006C208.536 216.242 209.263 216.605 209.741 217.092C210.22 217.575 210.459 218.198 210.459 218.96C210.459 219.585 210.279 220.144 209.919 220.636C209.564 221.129 209.067 221.517 208.427 221.801C207.788 222.085 207.045 222.227 206.197 222.227C205.085 222.227 204.164 221.986 203.435 221.503C202.705 221.02 202.244 220.314 202.05 219.386L203.64 218.989C203.792 219.576 204.078 220.016 204.5 220.31C204.926 220.603 205.482 220.75 206.169 220.75C206.95 220.75 207.57 220.584 208.03 220.253C208.494 219.917 208.726 219.514 208.726 219.045C208.726 218.667 208.593 218.349 208.328 218.094C208.063 217.833 207.656 217.639 207.106 217.511L205.288 217.085C204.289 216.848 203.555 216.482 203.087 215.984C202.622 215.482 202.39 214.855 202.39 214.102C202.39 213.487 202.563 212.942 202.909 212.469C203.259 211.995 203.735 211.624 204.337 211.354C204.943 211.084 205.629 210.949 206.396 210.949C207.476 210.949 208.323 211.186 208.939 211.659C209.559 212.133 209.999 212.758 210.26 213.534ZM227.127 211.091L223.093 222H221.389L217.354 211.091H219.173L222.184 219.784H222.298L225.309 211.091H227.127ZM233.323 222.227C232.272 222.227 231.365 221.995 230.603 221.531C229.845 221.062 229.26 220.409 228.848 219.571C228.441 218.728 228.238 217.748 228.238 216.631C228.238 215.513 228.441 214.528 228.848 213.676C229.26 212.819 229.833 212.152 230.567 211.673C231.306 211.19 232.167 210.949 233.152 210.949C233.721 210.949 234.282 211.044 234.836 211.233C235.39 211.422 235.894 211.73 236.348 212.156C236.803 212.578 237.165 213.136 237.435 213.832C237.705 214.528 237.84 215.385 237.84 216.403V217.114H229.431V215.665H236.135C236.135 215.049 236.012 214.5 235.766 214.017C235.525 213.534 235.179 213.153 234.729 212.874C234.284 212.594 233.758 212.455 233.152 212.455C232.485 212.455 231.907 212.62 231.419 212.952C230.936 213.278 230.565 213.705 230.304 214.23C230.044 214.756 229.914 215.319 229.914 215.92V216.886C229.914 217.71 230.056 218.409 230.34 218.982C230.629 219.55 231.029 219.983 231.54 220.281C232.051 220.575 232.646 220.722 233.323 220.722C233.763 220.722 234.161 220.66 234.516 220.537C234.876 220.409 235.186 220.22 235.446 219.969C235.707 219.713 235.908 219.396 236.05 219.017L237.669 219.472C237.499 220.021 237.212 220.504 236.81 220.92C236.408 221.332 235.91 221.654 235.319 221.886C234.727 222.114 234.061 222.227 233.323 222.227ZM244.621 222.227C243.599 222.227 242.718 221.986 241.979 221.503C241.241 221.02 240.673 220.355 240.275 219.507C239.877 218.66 239.678 217.691 239.678 216.602C239.678 215.494 239.882 214.517 240.289 213.669C240.701 212.817 241.274 212.152 242.008 211.673C242.746 211.19 243.608 210.949 244.593 210.949C245.36 210.949 246.051 211.091 246.667 211.375C247.282 211.659 247.787 212.057 248.18 212.568C248.573 213.08 248.816 213.676 248.911 214.358H247.235C247.107 213.861 246.823 213.42 246.383 213.037C245.947 212.649 245.36 212.455 244.621 212.455C243.968 212.455 243.395 212.625 242.903 212.966C242.415 213.302 242.034 213.778 241.759 214.393C241.489 215.004 241.354 215.722 241.354 216.545C241.354 217.388 241.487 218.122 241.752 218.747C242.022 219.372 242.401 219.857 242.888 220.203C243.381 220.549 243.959 220.722 244.621 220.722C245.057 220.722 245.452 220.646 245.807 220.494C246.163 220.343 246.463 220.125 246.709 219.841C246.956 219.557 247.131 219.216 247.235 218.818H248.911C248.816 219.462 248.582 220.042 248.208 220.558C247.839 221.07 247.349 221.477 246.738 221.78C246.132 222.078 245.426 222.227 244.621 222.227ZM255.906 211.091V212.511H250.252V211.091H255.906ZM251.9 208.477H253.576V218.875C253.576 219.348 253.645 219.704 253.782 219.94C253.924 220.172 254.104 220.329 254.322 220.409C254.544 220.485 254.779 220.523 255.025 220.523C255.21 220.523 255.361 220.513 255.48 220.494C255.598 220.471 255.693 220.452 255.764 220.438L256.105 221.943C255.991 221.986 255.832 222.028 255.629 222.071C255.425 222.118 255.167 222.142 254.855 222.142C254.381 222.142 253.917 222.04 253.463 221.837C253.013 221.633 252.639 221.323 252.34 220.906C252.047 220.49 251.9 219.964 251.9 219.33V208.477ZM262.542 222.227C261.557 222.227 260.693 221.993 259.949 221.524C259.211 221.055 258.633 220.4 258.216 219.557C257.804 218.714 257.599 217.729 257.599 216.602C257.599 215.466 257.804 214.474 258.216 213.626C258.633 212.779 259.211 212.121 259.949 211.652C260.693 211.183 261.557 210.949 262.542 210.949C263.527 210.949 264.388 211.183 265.127 211.652C265.87 212.121 266.448 212.779 266.86 213.626C267.277 214.474 267.485 215.466 267.485 216.602C267.485 217.729 267.277 218.714 266.86 219.557C266.448 220.4 265.87 221.055 265.127 221.524C264.388 221.993 263.527 222.227 262.542 222.227ZM262.542 220.722C263.29 220.722 263.905 220.53 264.388 220.146C264.871 219.763 265.229 219.259 265.461 218.634C265.693 218.009 265.809 217.331 265.809 216.602C265.809 215.873 265.693 215.194 265.461 214.564C265.229 213.934 264.871 213.425 264.388 213.037C263.905 212.649 263.29 212.455 262.542 212.455C261.794 212.455 261.178 212.649 260.695 213.037C260.212 213.425 259.855 213.934 259.623 214.564C259.391 215.194 259.275 215.873 259.275 216.602C259.275 217.331 259.391 218.009 259.623 218.634C259.855 219.259 260.212 219.763 260.695 220.146C261.178 220.53 261.794 220.722 262.542 220.722ZM269.843 222V211.091H271.463V212.739H271.576C271.775 212.199 272.135 211.761 272.656 211.425C273.177 211.089 273.764 210.92 274.417 210.92C274.54 210.92 274.694 210.923 274.879 210.928C275.064 210.932 275.203 210.939 275.298 210.949V212.653C275.241 212.639 275.111 212.618 274.907 212.589C274.709 212.556 274.498 212.54 274.275 212.54C273.745 212.54 273.271 212.651 272.855 212.874C272.443 213.091 272.116 213.394 271.875 213.783C271.638 214.166 271.52 214.604 271.52 215.097V222H269.843Z" fill="black"/>
<path d="M208.061 72.9393C207.475 72.3536 206.525 72.3536 205.939 72.9393L196.393 82.4853C195.808 83.0711 195.808 84.0208 196.393 84.6066C196.979 85.1924 197.929 85.1924 198.515 84.6066L207 76.1213L215.485 84.6066C216.071 85.1924 217.021 85.1924 217.607 84.6066C218.192 84.0208 218.192 83.0711 217.607 82.4853L208.061 72.9393ZM208.5 173V74H205.5V173H208.5Z" fill="black"/>
</svg>
